<?xml version="1.0" standalone="no"?>
<!DOCTYPE svg PUBLIC "-//W3C//DTD SVG 20010904//EN"
 "http://www.w3.org/TR/2001/REC-SVG-20010904/DTD/svg10.dtd">
<svg version="1.0" xmlns="http://www.w3.org/2000/svg"
 width="798.000000pt" height="536.000000pt" viewBox="0 0 798.000000 536.000000"
 preserveAspectRatio="xMidYMid meet">

<g transform="translate(0.000000,536.000000) scale(0.100000,-0.100000)"
fill="#000000" stroke="none">
<path d="M0 2680 l0 -2680 3990 0 3990 0 0 2680 0 2680 -3990 0 -3990 0 0
-2680z m4190 1943 c71 -7 73 -7 30 -13 l-45 -6 55 -8 c79 -11 274 -61 361 -91
225 -81 464 -231 647 -409 34 -33 62 -56 62 -50 0 12 -115 124 -185 181 -122
99 -348 225 -521 292 -72 28 -164 53 -284 79 -28 6 -36 10 -20 11 41 2 220
-45 341 -90 385 -140 710 -397 939 -742 166 -249 248 -477 291 -809 13 -105 7
-460 -9 -503 -6 -16 -23 -82 -37 -145 -101 -435 -366 -832 -745 -1111 -92 -68
-206 -142 -233 -152 -7 -2 -10 -7 -6 -10 9 -10 208 110 306 185 94 71 235 211
312 308 111 139 230 348 296 518 16 39 30 70 33 68 2 -3 -6 -31 -18 -63 -110
-294 -284 -550 -515 -756 -224 -199 -483 -338 -777 -417 -111 -29 -335 -61
-413 -59 -22 1 11 8 74 15 200 23 435 83 586 149 59 27 77 43 20 19 -75 -31
-43 -11 80 51 437 219 773 609 929 1078 93 278 121 693 66 972 -21 108 -87
331 -96 322 -2 -2 3 -23 11 -47 38 -107 88 -336 70 -318 -4 3 -18 57 -31 119
-62 273 -192 541 -359 742 -32 37 -59 66 -62 63 -3 -2 22 -36 54 -74 100 -120
232 -359 297 -540 91 -253 130 -570 101 -807 -37 -304 -118 -543 -260 -775
-32 -52 -66 -109 -75 -127 -85 -158 -347 -400 -575 -528 l-50 -29 30 29 c17
16 59 49 95 73 103 71 196 148 278 233 77 80 166 198 157 208 -3 3 -38 -26
-77 -65 l-71 -69 50 60 c236 279 404 692 419 1030 2 55 7 129 9 165 8 114 -26
333 -82 525 -76 264 -280 591 -475 762 -223 196 -386 294 -629 377 -260 89
-578 119 -819 77 -235 -42 -406 -102 -594 -208 -210 -119 -446 -328 -573 -508
-72 -102 -177 -292 -208 -378 -10 -26 -20 -46 -22 -43 -2 2 10 38 27 81 34 86
34 114 0 38 -89 -196 -140 -406 -169 -698 -7 -68 -9 -72 -10 -29 -4 153 44
411 110 599 54 154 49 178 -7 30 -15 -38 -31 -74 -36 -80 -12 -13 34 108 79
210 102 228 297 491 483 650 398 340 862 486 1390 438z m-142 -750 c-15 -2
-42 -2 -60 0 -18 2 -6 4 27 4 33 0 48 -2 33 -4z m237 -115 l30 -33 -40 35
c-22 19 -44 39 -50 44 -5 5 -1 4 10 -2 11 -6 33 -25 50 -44z m65 -114 c11 -37
20 -76 19 -88 0 -11 -9 11 -19 51 -10 40 -24 82 -30 94 -8 14 -8 19 -1 15 6
-4 20 -36 31 -72z m-703 -56 c-3 -8 -6 -5 -6 6 -1 11 2 17 5 13 3 -3 4 -12 1
-19z m410 -50 c-3 -7 -5 -2 -5 12 0 14 2 19 5 13 2 -7 2 -19 0 -25z m-3 -73
c4 -30 3 -34 -4 -18 -7 18 -15 21 -42 16 -26 -4 -37 0 -48 14 -12 15 -12 16 0
6 22 -20 58 -15 70 8 14 26 16 24 24 -26z m-407 -37 c-3 -7 -5 -2 -5 12 0 14
2 19 5 13 2 -7 2 -19 0 -25z m720 0 c-3 -7 -5 -2 -5 12 0 14 2 19 5 13 2 -7 2
-19 0 -25z m-698 -48 c11 -24 11 -24 -3 -6 -9 11 -16 24 -16 30 0 12 5 7 19
-24z m414 -15 c9 -18 9 -19 -6 -6 -10 7 -17 10 -17 5 0 -4 -6 0 -13 10 -19 26
-71 18 -75 -11 -2 -16 3 -23 23 -26 24 -4 24 -4 -2 -3 -23 1 -29 6 -31 28 -3
22 2 29 23 34 14 3 37 4 50 2 14 -3 25 0 26 6 0 6 3 4 6 -4 3 -8 10 -24 16
-35z m-379 -52 c9 -18 14 -33 12 -33 -6 0 -36 55 -36 66 0 11 5 3 24 -33z
m396 -2 c0 -16 -9 -39 -21 -52 l-21 -24 16 25 c9 13 16 37 16 52 0 16 2 28 5
28 3 0 5 -13 5 -29z m-1806 -35 c-3 -15 -8 -25 -11 -23 -2 3 -1 17 3 31 3 15
8 25 11 23 2 -3 1 -17 -3 -31z m2005 17 c-7 -10 -21 -27 -30 -38 -10 -11 -25
-33 -33 -50 -9 -16 -16 -24 -16 -16 0 14 77 121 87 121 3 0 -1 -8 -8 -17z
m-2022 -75 c-3 -8 -6 -5 -6 6 -1 11 2 17 5 13 3 -3 4 -12 1 -19z m1773 19 c0
-2 -10 -12 -22 -23 l-23 -19 19 23 c18 21 26 27 26 19z m-271 -56 c6 -19 11
-68 12 -110 1 -42 4 -87 8 -101 l7 -25 214 -5 c118 -3 214 -9 212 -14 -1 -5
-102 -8 -227 -7 -124 1 -229 0 -234 -4 -18 -10 0 -34 32 -44 18 -5 102 -13
188 -16 86 -4 167 -12 180 -19 34 -17 35 -42 2 -63 -24 -16 -51 -18 -212 -18
-133 0 -185 -3 -188 -12 -6 -17 61 -33 142 -33 86 0 185 -16 199 -31 8 -9 3
-10 -19 -5 -16 3 -88 10 -160 16 -71 6 -137 13 -147 16 -22 7 -30 31 -17 56
11 20 16 21 188 14 181 -7 231 -1 231 28 0 8 -4 18 -10 21 -5 3 -92 9 -192 14
-101 4 -193 13 -204 19 -28 15 -35 46 -17 72 13 18 15 44 10 134 -2 61 -10
125 -17 141 -6 17 -7 26 -2 20 5 -5 14 -25 21 -44z m158 -43 c-2 -18 -4 -4 -4
32 0 36 2 50 4 33 2 -18 2 -48 0 -65z m-1670 40 c-3 -8 -6 -5 -6 6 -1 11 2 17
5 13 3 -3 4 -12 1 -19z m1740 -145 c-2 -32 -3 -8 -3 52 0 61 1 87 3 58 2 -29
2 -78 0 -110z m213 32 c0 -63 -4 -105 -10 -105 -5 0 -10 24 -10 53 0 57 11
157 16 157 2 0 4 -47 4 -105z m-1963 73 c-3 -8 -6 -5 -6 6 -1 11 2 17 5 13 3
-3 4 -12 1 -19z m-10 -50 c-3 -8 -6 -5 -6 6 -1 11 2 17 5 13 3 -3 4 -12 1 -19z
m-10 -60 c-3 -7 -5 -2 -5 12 0 14 2 19 5 13 2 -7 2 -19 0 -25z m-20 -180 c-3
-7 -5 -2 -5 12 0 14 2 19 5 13 2 -7 2 -19 0 -25z m1890 -215 c-14 -14 -40 -19
-115 -23 -96 -5 -96 -5 -70 -22 27 -18 48 -69 48 -118 0 -14 9 -31 20 -38 51
-32 -8 -120 -62 -91 -24 13 -23 59 2 92 13 17 20 40 20 71 0 40 -3 47 -30 61
-32 17 -41 51 -15 61 8 3 56 9 107 14 51 4 97 8 103 9 5 0 1 -7 -8 -16z
m-1267 -638 c0 -69 -3 -85 -15 -85 -12 0 -15 16 -15 85 0 69 3 85 15 85 12 0
15 -16 15 -85z m141 75 c24 -13 26 -65 2 -78 -15 -9 -14 -12 5 -40 27 -37 27
-42 4 -42 -11 0 -27 14 -38 35 -10 19 -22 35 -26 35 -5 0 -8 -16 -8 -35 0 -24
-5 -35 -15 -35 -12 0 -15 16 -15 85 l0 85 36 0 c19 0 44 -5 55 -10z m219 -5
c0 -10 -10 -15 -30 -15 -23 0 -30 -4 -30 -20 0 -16 7 -20 30 -20 20 0 30 -5
30 -15 0 -10 -10 -15 -30 -15 -23 0 -30 -4 -30 -20 0 -16 7 -20 30 -20 20 0
30 -5 30 -15 0 -11 -12 -15 -50 -15 l-50 0 0 85 0 85 50 0 c38 0 50 -4 50 -15z
m80 -55 c0 -68 1 -70 25 -70 16 0 25 -6 25 -15 0 -11 -12 -15 -45 -15 l-45 0
0 85 c0 78 2 85 20 85 18 0 20 -7 20 -70z m170 55 c0 -10 -10 -15 -30 -15 -23
0 -30 -4 -30 -20 0 -16 7 -20 30 -20 20 0 30 -5 30 -15 0 -10 -10 -15 -30 -15
-23 0 -30 -4 -30 -20 0 -16 7 -20 30 -20 20 0 30 -5 30 -15 0 -11 -12 -15 -45
-15 l-45 0 0 85 0 85 45 0 c33 0 45 -4 45 -15z m177 -9 c24 -21 26 -25 11 -31
-10 -4 -27 0 -40 9 -28 20 -42 20 -62 0 -19 -18 -21 -65 -4 -82 17 -17 54 -15
72 3 8 8 22 12 31 9 14 -6 13 -9 -6 -30 -51 -54 -149 -15 -149 58 1 77 88 115
147 64z m153 9 c0 -8 -9 -15 -20 -15 -18 0 -20 -7 -20 -70 0 -63 -2 -70 -20
-70 -18 0 -20 7 -20 70 0 63 -2 70 -20 70 -11 0 -20 7 -20 15 0 12 13 15 60
15 47 0 60 -3 60 -15z m124 -1 c21 -21 20 -61 -1 -73 -17 -9 -16 -12 5 -40 27
-36 27 -41 5 -41 -10 0 -29 17 -43 38 l-25 37 -3 -37 c-3 -30 -7 -38 -23 -38
-17 0 -19 8 -19 85 l0 85 44 0 c27 0 51 -6 60 -16z m189 -4 c33 -26 43 -70 23
-108 -17 -33 -34 -42 -76 -42 -42 0 -59 9 -75 41 -22 42 -18 67 14 100 35 35
77 38 114 9z m97 -22 c25 -98 25 -98 43 -36 10 31 17 61 17 67 0 6 8 11 18 11
14 0 23 -16 38 -67 l21 -68 10 40 c6 22 14 52 17 68 4 18 13 27 27 27 11 0 18
-3 16 -7 -2 -5 -12 -43 -21 -85 -17 -75 -19 -78 -45 -78 -25 0 -30 5 -41 45
-7 25 -16 45 -19 45 -4 0 -12 -20 -19 -45 -11 -40 -15 -45 -40 -45 -27 0 -29
4 -49 85 -19 81 -20 85 -2 85 13 0 21 -12 29 -42z m330 27 c0 -10 -10 -15 -30
-15 -23 0 -30 -4 -30 -20 0 -16 7 -20 30 -20 20 0 30 -5 30 -15 0 -10 -10 -15
-30 -15 -23 0 -30 -4 -30 -20 0 -16 7 -20 30 -20 20 0 30 -5 30 -15 0 -11 -12
-15 -45 -15 l-45 0 0 85 0 85 45 0 c33 0 45 -4 45 -15z m142 -2 c22 -20 23
-41 2 -64 -17 -19 -15 -29 12 -66 16 -22 15 -23 -4 -23 -13 0 -29 14 -44 38
l-23 37 -3 -37 c-3 -30 -7 -38 -23 -38 -17 0 -19 8 -19 85 l0 85 42 0 c24 0
49 -7 60 -17z m98 -18 c0 -19 3 -35 8 -35 4 0 21 16 37 36 19 22 37 35 48 33
15 -3 13 -10 -14 -42 l-31 -38 31 -45 c32 -43 32 -44 9 -44 -15 0 -31 12 -47
35 -30 44 -41 44 -41 0 0 -28 -4 -35 -20 -35 -18 0 -20 7 -20 85 0 78 2 85 20
85 16 0 20 -7 20 -35z m240 20 c0 -10 -10 -15 -30 -15 -23 0 -30 -4 -30 -20 0
-15 7 -20 25 -20 16 0 25 -6 25 -15 0 -9 -9 -15 -25 -15 -18 0 -25 -5 -25 -20
0 -16 7 -20 30 -20 20 0 30 -5 30 -15 0 -11 -12 -15 -50 -15 l-50 0 0 85 0 85
50 0 c38 0 50 -4 50 -15z m113 -35 c39 -69 47 -70 47 -6 0 49 2 56 20 56 18 0
20 -7 20 -85 0 -83 0 -85 -24 -85 -19 0 -33 13 -60 58 l-35 57 -1 -57 c0 -51
-2 -58 -20 -58 -18 0 -20 7 -20 85 0 81 1 85 23 85 16 0 29 -13 50 -50z
m-2759 -147 c14 -29 24 -53 21 -53 -5 0 -55 95 -55 106 0 12 6 2 34 -53z m734
-250 c8 -25 7 -28 -14 -28 -13 0 -24 3 -24 8 0 4 7 7 15 7 8 0 15 5 15 11 0 5
-4 7 -10 4 -11 -7 -14 8 -3 18 9 10 10 9 21 -20z m60 -26 c12 -3 10 -5 -5 -6
-20 -1 -23 4 -22 32 2 29 2 29 6 5 2 -15 12 -29 21 -31z m79 47 c-3 -3 -12 -4
-19 -1 -8 3 -5 6 6 6 11 1 17 -2 13 -5z m61 -1 c-10 -2 -18 -13 -18 -23 0 -10
8 -21 18 -23 13 -4 11 -5 -5 -6 -19 -1 -23 4 -23 29 0 25 4 30 23 29 16 -1 18
-2 5 -6z m53 -14 c6 -13 7 -19 1 -15 -6 3 -13 -2 -15 -11 -3 -10 -5 -3 -6 15
-1 37 4 40 20 11z m48 -11 c-1 -18 -3 -25 -6 -15 -2 9 -9 14 -15 11 -6 -4 -5
2 1 15 16 29 21 26 20 -11z m49 25 c-10 -2 -18 -13 -18 -23 0 -10 8 -21 18
-23 13 -4 11 -5 -5 -6 -19 -1 -23 4 -23 29 0 25 4 30 23 29 16 -1 18 -2 5 -6z
m56 -9 c3 -8 2 -12 -4 -9 -6 3 -10 10 -10 16 0 14 7 11 14 -7z m79 9 c-7 -2
-13 -13 -13 -23 0 -10 6 -21 13 -23 7 -3 5 -6 -5 -6 -13 -1 -18 7 -18 29 0 22
5 30 18 29 10 0 12 -3 5 -6z m105 0 c-10 -2 -18 -13 -18 -23 0 -10 8 -21 18
-23 13 -4 11 -5 -5 -6 -19 -1 -23 4 -23 29 0 25 4 30 23 29 16 -1 18 -2 5 -6z
m60 -46 c12 -3 10 -5 -5 -6 -20 -1 -23 4 -22 32 2 29 2 29 6 5 2 -15 12 -29
21 -31z m60 46 c-10 -2 -18 -13 -18 -23 0 -10 8 -21 18 -23 13 -4 11 -5 -5 -6
-19 -1 -23 4 -23 29 0 25 4 30 23 29 16 -1 18 -2 5 -6z m60 -1 c15 11 15 11 5
-3 -7 -9 -9 -20 -5 -24 4 -5 2 -5 -5 -1 -6 3 -13 -1 -16 -11 -3 -10 -5 -2 -5
17 0 19 2 29 5 22 4 -10 8 -10 21 0z m76 0 c-7 -4 -14 -18 -16 -32 -3 -23 -4
-22 -9 8 -5 27 -3 32 15 32 13 0 17 -3 10 -8z m70 -1 c9 -14 -5 -42 -16 -35
-6 4 -14 0 -19 -7 -6 -10 -9 -4 -9 19 0 25 4 32 19 32 11 0 22 -4 25 -9z m59
2 c-7 -2 -19 -2 -25 0 -7 3 -2 5 12 5 14 0 19 -2 13 -5z m74 1 c-3 -3 -12 -4
-19 -1 -8 3 -5 6 6 6 11 1 17 -2 13 -5z m66 -1 c-7 -2 -13 -13 -13 -23 0 -10
6 -21 13 -23 6 -3 3 -6 -8 -6 -16 -1 -20 5 -20 29 0 24 4 30 20 29 11 0 14 -3
8 -6z m60 0 c-7 -2 -19 -2 -25 0 -7 3 -2 5 12 5 14 0 19 -2 13 -5z m64 1 c-3
-3 -12 -4 -19 -1 -8 3 -5 6 6 6 11 1 17 -2 13 -5z m66 -1 c-7 -2 -19 -2 -25 0
-7 3 -2 5 12 5 14 0 19 -2 13 -5z m58 -25 c-5 -30 -6 -31 -9 -8 -2 14 -9 28
-16 32 -7 5 -3 8 10 8 18 0 20 -5 15 -32z m66 26 c-3 -3 -12 -4 -19 -1 -8 3
-5 6 6 6 11 1 17 -2 13 -5z m83 -15 c0 -6 -4 -7 -10 -4 -5 3 -10 11 -10 16 0
6 5 7 10 4 6 -3 10 -11 10 -16z m78 14 c-10 -2 -18 -13 -18 -23 0 -10 8 -21
18 -23 13 -4 11 -5 -5 -6 -19 -1 -23 4 -23 29 0 25 4 30 23 29 16 -1 18 -2 5
-6z m77 -3 c11 -17 -9 -40 -25 -30 -13 8 -12 10 3 10 9 0 17 4 17 9 0 5 -8 12
-17 14 -16 4 -16 5 -1 6 9 0 20 -3 23 -9z m53 2 c15 11 15 11 5 -3 -7 -9 -9
-20 -5 -24 4 -5 2 -5 -5 -1 -6 3 -13 -1 -16 -11 -3 -10 -5 -2 -5 17 0 19 2 29
5 22 4 -10 8 -10 21 0z m65 1 c-7 -2 -13 -13 -13 -23 0 -10 6 -21 13 -23 7 -3
5 -6 -5 -6 -13 -1 -18 7 -18 29 0 22 5 30 18 29 10 0 12 -3 5 -6z m49 -28 c-6
-34 -12 -32 -12 6 0 16 4 28 9 25 4 -3 6 -17 3 -31z m36 -12 c-3 -14 -5 -14
-18 2 -9 11 -10 16 -2 11 8 -5 12 0 13 16 1 17 3 18 6 6 2 -10 3 -25 1 -35z
m-346 -5 c-7 -7 -12 -8 -12 -2 0 14 12 26 19 19 2 -3 -1 -11 -7 -17z m-1092 2
c0 -5 -2 -10 -4 -10 -3 0 -8 5 -11 10 -3 6 -1 10 4 10 6 0 11 -4 11 -10z
m1060 6 c0 -3 -4 -8 -10 -11 -5 -3 -10 -1 -10 4 0 6 5 11 10 11 6 0 10 -2 10
-4z m-517 -13 c-7 -2 -19 -2 -25 0 -7 3 -2 5 12 5 14 0 19 -2 13 -5z m74 1
c-3 -3 -12 -4 -19 -1 -8 3 -5 6 6 6 11 1 17 -2 13 -5z m190 0 c-3 -3 -12 -4
-19 -1 -8 3 -5 6 6 6 11 1 17 -2 13 -5z m66 -1 c-7 -2 -19 -2 -25 0 -7 3 -2 5
12 5 14 0 19 -2 13 -5z m-1532 -340 c13 -16 12 -17 -3 -4 -17 13 -22 21 -14
21 2 0 10 -8 17 -17z m40 -30 c13 -16 12 -17 -3 -4 -10 7 -18 15 -18 17 0 8 8
3 21 -13z m40 -30 c13 -16 12 -17 -3 -4 -17 13 -22 21 -14 21 2 0 10 -8 17
-17z m100 -65 l24 -20 -31 17 c-17 10 -41 26 -55 37 l-24 20 31 -17 c17 -10
41 -26 55 -37z m273 -147 c-4 -5 -204 93 -229 113 -11 9 37 -12 106 -47 70
-34 125 -64 123 -66z m1356 -1 c-8 -5 -19 -10 -25 -10 -5 0 -3 5 5 10 8 5 20
10 25 10 6 0 3 -5 -5 -10z m-1290 -20 c8 -5 11 -10 5 -10 -5 0 -17 5 -25 10
-8 5 -10 10 -5 10 6 0 17 -5 25 -10z m1240 0 c-8 -5 -22 -9 -30 -9 -10 0 -8 3
5 9 27 12 43 12 25 0z m-273 -46 c-3 -3 -12 -4 -19 -1 -8 3 -5 6 6 6 11 1 17
-2 13 -5z m-54 -11 c-7 -2 -19 -2 -25 0 -7 3 -2 5 12 5 14 0 19 -2 13 -5z
m-26 -29 c-3 -3 -12 -4 -19 -1 -8 3 -5 6 6 6 11 1 17 -2 13 -5z"/>
<path d="M4048 4613 c23 -2 59 -2 80 0 20 2 1 4 -43 4 -44 0 -61 -2 -37 -4z"/>
<path d="M2920 2025 c0 -26 14 -31 39 -16 19 12 6 41 -19 41 -15 0 -20 -7 -20
-25z"/>
<path d="M3840 2025 c0 -28 21 -33 40 -10 15 18 5 35 -21 35 -14 0 -19 -7 -19
-25z"/>
<path d="M4006 2034 c-34 -33 -12 -94 34 -94 31 0 50 22 50 59 0 25 -26 51
-50 51 -10 0 -26 -7 -34 -16z"/>
<path d="M4600 2024 c0 -33 33 -30 38 4 3 17 -2 22 -17 22 -16 0 -21 -6 -21
-26z"/>
<path d="M3970 1640 c0 -5 7 -10 15 -10 8 0 15 5 15 10 0 6 -7 10 -15 10 -8 0
-15 -4 -15 -10z"/>
</g>
</svg>
